<?xml version="1.0" encoding="utf-8"?>
<!-- Generator: Adobe Illustrator 18.0.0, SVG Export Plug-In . SVG Version: 6.00 Build 0)  -->
<!DOCTYPE svg PUBLIC "-//W3C//DTD SVG 1.1//EN" "http://www.w3.org/Graphics/SVG/1.1/DTD/svg11.dtd">
<svg version="1.1" id="Layer_1" xmlns="http://www.w3.org/2000/svg" xmlns:xlink="http://www.w3.org/1999/xlink" x="0px" y="0px"
	 viewBox="0 313 595.3 276" enable-background="new 0 313 595.3 276" xml:space="preserve">
<path d="M460.4,439.8l-21.5-64.7V359H120.9v140.1h-10.8v24.2h68c0-22.3,18.1-40.4,40.4-40.4c22.3,0,40.4,18.1,40.4,40.4h126
	c0-22.3,18.1-40.4,40.4-40.4c15.7,0,29.3,9,36,22.1c2.4,4.7,3.9,9.9,4.3,15.5c0.1,1,0.1,1.9,0.1,2.9h32.3V456L460.4,439.8z
	 M390.4,439.8v-48.5h37.7l16.2,48.5H390.4z"/>
<path d="M218.6,493.7c-16.4,0-29.6,13.3-29.6,29.6c0,16.4,13.3,29.6,29.6,29.6c16.4,0,29.6-13.3,29.6-29.6
	C248.2,507,235,493.7,218.6,493.7z M218.6,539.5c-8.9,0-16.2-7.2-16.2-16.2c0-8.9,7.2-16.2,16.2-16.2c8.9,0,16.2,7.2,16.2,16.2
	C234.8,532.3,227.5,539.5,218.6,539.5z"/>
<path d="M425.4,493.7c-16.4,0-29.6,13.3-29.6,29.6c0,16.4,13.3,29.6,29.6,29.6c16.4,0,29.6-13.3,29.6-29.6
	C455,507,441.7,493.7,425.4,493.7z M425.4,539.5c-8.9,0-16.2-7.2-16.2-16.2c0-8.9,7.2-16.2,16.2-16.2c8.9,0,16.2,7.2,16.2,16.2
	C441.5,532.3,434.3,539.5,425.4,539.5z"/>
</svg>
