<?xml version="1.0" encoding="utf-8"?>
<!-- Generator: Adobe Illustrator 18.0.0, SVG Export Plug-In . SVG Version: 6.00 Build 0)  -->
<!DOCTYPE svg PUBLIC "-//W3C//DTD SVG 1.1//EN" "http://www.w3.org/Graphics/SVG/1.1/DTD/svg11.dtd">
<svg version="1.1" id="Layer_1" xmlns="http://www.w3.org/2000/svg" xmlns:xlink="http://www.w3.org/1999/xlink" x="0px" y="0px"
	 viewBox="0 313 595.3 276" enable-background="new 0 313 595.3 276" xml:space="preserve">
<polygon points="493.7,533.6 528.2,535.6 528.2,551.8 493.7,551.8 "/>
<polygon points="424.3,529.6 71,539.5 71,551.3 424.3,551.8 424.3,551.3 474,551.8 474,532.6 "/>
<polygon points="484.4,346.9 424.3,355.2 424.3,355.7 71,444.4 71,456.7 424.3,377.4 424.3,377.4 528.2,423.2 528.2,407 "/>
<path d="M424.3,387.3l104,43.4v98.5l-34.5-3v-18.7l-19.7-3v19.7l-49.8-3.9v0.5L71,534.6v-72.9L424.3,387.3L424.3,387.3L424.3,387.3z
	 M81.4,504l-5.9,0.5v11.3l5.9-0.5V504z M81.4,485.3l-5.9,1v11.3l5.9-0.5V485.3z M81.4,467.1l-5.9,1v11.3l5.9-1V467.1z M92.2,503
	l-5.9,0.5v11.3l6.4-0.5V503H92.2z M92.2,483.8l-6.4,1v11.3l6.4-1C92.2,495.2,92.2,483.8,92.2,483.8z M92.2,464.6l-6.4,1v11.3l6.4-1
	C92.2,475.9,92.2,464.6,92.2,464.6z M103.6,501.6l-6.4,0.5v11.8l6.4-0.5V501.6z M103.6,481.9l-6.4,1v11.8l6.4-1V481.9z M103.6,462.6
	l-6.4,1.5v11.8l6.4-1V462.6z M115.9,500.6l-6.9,1v11.8l6.9-0.5V500.6z M115.9,480.4l-6.9,1v12.3l6.9-1V480.4z M115.9,460.2l-6.9,1.5
	V474l6.9-1V460.2z M128.2,499.1l-7.4,1v12.3l7.4-0.5V499.1z M128.2,478.4l-7.4,1v12.3l7.4-1V478.4z M128.2,457.7l-6.9,1.5v12.3
	l7.4-1v-12.8H128.2z M141.5,497.6l-7.4,1v12.8l7.4-0.5V497.6z M141.5,476.4l-7.4,1v12.8l7.4-1V476.4z M141.5,455.2l-7.4,1.5v12.8
	l7.4-1.5V455.2z M155.8,496.1l-7.9,1v13.3l7.9-0.5V496.1z M155.8,474l-7.9,1v13.8l7.9-1V474z M155.8,452.3l-7.9,1.5v13.3l7.9-1.5
	V452.3z M170.6,494.2l-8.4,1v13.3l8.4-0.5V494.2z M170.6,472l-8.4,1.5v13.3l8.4-1V472z M170.6,449.3l-8.4,1.5v13.3l8.4-1.5V449.3z
	 M186.3,492.7l-9.4,1v13.8l8.9-0.5v-14.3H186.3z M186.3,469.5l-8.9,1.5v13.8l8.9-1V469.5z M186.3,446.4l-8.9,2v13.8l8.9-1.5V446.4z
	 M202.6,490.7l-9.4,1V506l9.4-1V490.7z M202.6,467.1l-9.4,1.5v14.3l9.4-1V467.1z M202.6,443.4l-9.4,2v14.3l9.4-1.5V443.4z
	 M220.3,488.7l-10.3,1v14.8l10.3-1V488.7z M220.3,464.6l-10.3,1.5v14.8l10.3-1.5V464.6z M220.3,440l-10.3,2v14.8l10.3-1.5V440z
	 M239,486.8l-10.8,1v15.8l10.8-1V486.8z M239,461.7l-10.8,1.5v15.3l10.8-1.5V461.7z M239,436l-10.8,2v15.3l10.8-2V436z M259.2,484.8
	l-11.8,1.5v15.8l11.8-1V484.8z M259.2,458.7l-11.8,2v15.8l11.8-1.5V458.7z M259.2,432.1l-11.8,2.5v15.8l11.8-2L259.2,432.1
	L259.2,432.1z M280.4,482.3l-12.8,1.5v16.3l12.3-1v-16.8H280.4z M280.4,455.2l-12.3,2v16.3l12.3-1.5V455.2z M280.4,428.2l-12.3,2.5
	v16.3l12.3-2V428.2z M303.1,479.9l-13.3,1.5v17.2l13.3-1V479.9z M303.1,451.8l-13.3,2v16.8l13.3-1.5V451.8z M303.1,423.7l-13.3,2.5
	v16.8l13.3-2.5V423.7z M327.2,477.4l-14.3,1.5v17.7l14.3-1V477.4L327.2,477.4z M327.2,448.3l-14.3,2v17.7l14.3-2V448.3z
	 M327.2,418.8l-14.3,3v17.7l14.3-2.5V418.8z M353.8,474.5l-15.3,1.5v18.2l15.3-1.5V474.5z M353.8,444.4l-15.3,2.5v18.2l15.3-2V444.4
	z M353.8,413.9l-15.3,3V435l15.3-2.5V413.9z M381.9,471.5l-16.8,2v18.7l16.8-1.5V471.5z M381.9,440l-16.8,2.5v18.7l16.8-2V440z
	 M381.9,408.4l-16.8,3.4v18.7l16.8-3V408.4z M413,468.1l-18.2,2v19.7l18.2-1.5V468.1z M413,435l-18.2,3v19.7l18.2-2.5V435z
	 M413,402.5l-18.2,3.4v19.7l18.2-3V402.5z M519.4,452.3l5.4,2V439l-5.4-2V452.3z M519.4,477.4l5.4,1.5v-15.3l-5.4-1.5V477.4z
	 M519.4,503l5.4,1v-15.3l-5.4-1V503z M509,448.8l5.9,2V435l-5.9-2.5V448.8z M509,475l5.9,1.5v-15.8l-5.9-2V475z M509,501.1l5.9,1
	v-15.8l-5.9-1.5V501.1z M498.2,444.9l6.4,2v-16.3l-6.4-2.5V444.9z M498.2,472l6.4,1.5v-16.3l-6.4-2V472z M498.2,499.1l6.4,1v-16.3
	l-6.4-1.5V499.1z M486.9,441l6.9,2.5v-16.8l-6.9-2.5V441z M486.9,469l6.9,1.5v-16.3l-6.9-2V469z M486.9,497.6l6.9,1v-16.8l-6.9-1.5
	V497.6z M474,437l7.4,2.5v-17.2l-7.4-3V437z M474,466.1l7.4,2v-17.2l-7.4-2V466.1z M474,495.2l7.4,1v-17.2l-7.4-1.5V495.2z
	 M460.7,432.6l7.9,2.5v-18.2l-7.9-3V432.6z M460.7,462.6l7.9,2v-18.2l-7.9-2V462.6z M460.7,493.2l7.9,1.5v-18.2l-7.9-1.5V493.2z
	 M446,427.7l8.4,3v-18.7l-8.4-3.4V427.7z M446,459.2l8.4,2v-18.7L446,440V459.2z M446,490.7l8.4,1.5v-18.7l-8.4-2V490.7z
	 M430.2,422.2l9.4,3v-19.7l-9.4-3.4V422.2z M430.2,455.2l9.4,2.5V438l-9.4-3V455.2z M430.2,487.8l9.4,1.5v-19.7l-9.4-2V487.8z"/>
<line fill="none" stroke="#990000" stroke-width="4" stroke-miterlimit="10" x1="0" y1="589" x2="595.3" y2="313"/>
<line fill="none" stroke="#990000" stroke-width="4" stroke-miterlimit="10" x1="0.1" y1="312.8" x2="595.2" y2="589.1"/>
</svg>
