<?xml version="1.0" encoding="utf-8"?>
<!-- Generator: Adobe Illustrator 18.0.0, SVG Export Plug-In . SVG Version: 6.00 Build 0)  -->
<!DOCTYPE svg PUBLIC "-//W3C//DTD SVG 1.1//EN" "http://www.w3.org/Graphics/SVG/1.1/DTD/svg11.dtd">
<svg version="1.1" id="Layer_1" xmlns="http://www.w3.org/2000/svg" xmlns:xlink="http://www.w3.org/1999/xlink" x="0px" y="0px"
	 viewBox="0 313 595.3 276" enable-background="new 0 313 595.3 276" xml:space="preserve">
<g>
	<path d="M277.1,448.3c0,13.6,4.6,27.1,16.3,31.9v-61.3C282.3,422,277.1,433.7,277.1,448.3z"/>
	<path d="M297.6,341c-60.8,0-110,49.2-110,110s49.2,110,110,110s110-49.2,110-110S358.4,341,297.6,341z M328.2,490.3
		c-4.2,2.5-13,5.9-23,6.4v14.9c0,1.7-0.8,2.4-2.4,2.4h-7.3c-1.5,0-2.2-0.8-2.2-2.4v-15.2c-23.6-2.5-37.3-20.8-37.3-44.7
		c0-24.6,16.3-42.4,37.3-45.9V390c0-1.4,0.7-2,2-2h7.6c1.5,0,2.2,0.7,2.2,2v15.1c8.1,0,15.8,1.2,19.3,2.5c1.2,0.5,2.2,1.7,2.2,3.1
		v20c0,1.5-0.8,2.4-2.4,2.4h-5.1c-1.2,0-2.2-0.7-2.5-2.2l-1.5-6.6c-0.8-3.9-4.1-5.9-10-6.3v64c6.1,0.3,13.2-1.5,18.5-4.6
		c1.5-0.8,3.2-0.2,3.6,1.5l2.2,8C329.8,488.4,329.2,489.8,328.2,490.3z"/>
</g>
</svg>
